<?xml version="1.0" encoding="utf-8"?>
<!-- Generated by IcoMoon.io -->
<!DOCTYPE svg PUBLIC "-//W3C//DTD SVG 1.1//EN" "http://www.w3.org/Graphics/SVG/1.1/DTD/svg11.dtd">
<svg version="1.1" xmlns="http://www.w3.org/2000/svg" xmlns:xlink="http://www.w3.org/1999/xlink" width="24" height="24" viewBox="0 0 24 24">
<path fill="#444444" d="M20.852 3.898c-2.194-2.396-5.347-3.898-8.852-3.898-6.627 0-12 5.373-12 12h2.25c0-5.385 4.365-9.75 9.75-9.75 2.883 0 5.474 1.252 7.258 3.242l-3.509 3.508h8.25v-8.25l-3.148 3.148z"></path>
<path fill="#444444" d="M21.75 12c0 5.385-4.365 9.75-9.75 9.75-2.883 0-5.474-1.252-7.258-3.242l3.508-3.508h-8.25v8.25l3.148-3.148c2.194 2.396 5.347 3.898 8.852 3.898 6.627 0 12-5.373 12-12h-2.25z"></path>
</svg>
