<?xml version="1.0" encoding="utf-8"?>
<!-- Generated by IcoMoon.io -->
<!DOCTYPE svg PUBLIC "-//W3C//DTD SVG 1.1//EN" "http://www.w3.org/Graphics/SVG/1.1/DTD/svg11.dtd">
<svg version="1.1" xmlns="http://www.w3.org/2000/svg" xmlns:xlink="http://www.w3.org/1999/xlink" width="24" height="24" viewBox="0 0 24 24">
<path fill="#444444" d="M12 24c-3.205 0-6.219-1.248-8.485-3.515s-3.515-5.28-3.515-8.485c0-2.27 0.637-4.48 1.842-6.391 1.172-1.858 2.828-3.36 4.79-4.343l1.008 2.012c-1.595 0.799-2.941 2.020-3.894 3.531-0.978 1.552-1.496 3.347-1.496 5.191 0 5.376 4.374 9.75 9.75 9.75s9.75-4.374 9.75-9.75c0-1.844-0.517-3.639-1.496-5.191-0.953-1.511-2.3-2.732-3.894-3.531l1.008-2.012c1.962 0.983 3.618 2.484 4.79 4.343 1.205 1.912 1.842 4.122 1.842 6.391 0 3.205-1.248 6.219-3.515 8.485s-5.28 3.515-8.485 3.515z"></path>
</svg>
