<?xml version="1.0" encoding="utf-8"?>
<!-- Generated by IcoMoon.io -->
<!DOCTYPE svg PUBLIC "-//W3C//DTD SVG 1.1//EN" "http://www.w3.org/Graphics/SVG/1.1/DTD/svg11.dtd">
<svg version="1.1" xmlns="http://www.w3.org/2000/svg" xmlns:xlink="http://www.w3.org/1999/xlink" width="24" height="24" viewBox="0 0 24 24">
<path fill="#444444" d="M12 7.104c-0.773 0-1.399-0.626-1.399-1.399v-4.197c0-0.773 0.626-1.399 1.399-1.399s1.399 0.626 1.399 1.399v4.197c0 0.773-0.626 1.399-1.399 1.399z"></path>
<path fill="#444444" d="M12 23.366c-0.483 0-0.874-0.391-0.874-0.874v-4.197c0-0.483 0.391-0.874 0.874-0.874s0.874 0.391 0.874 0.874v4.197c0 0.483-0.391 0.874-0.874 0.874z"></path>
<path fill="#444444" d="M8.854 7.86c-0.453 0-0.894-0.235-1.137-0.656l-2.098-3.634c-0.362-0.627-0.147-1.429 0.48-1.792s1.429-0.147 1.792 0.48l2.098 3.634c0.362 0.627 0.147 1.429-0.48 1.792-0.206 0.119-0.432 0.176-0.655 0.176z"></path>
<path fill="#444444" d="M17.247 21.873c-0.272 0-0.536-0.141-0.682-0.394l-2.098-3.634c-0.217-0.376-0.088-0.858 0.288-1.075s0.858-0.088 1.075 0.288l2.098 3.634c0.217 0.376 0.088 0.858-0.288 1.075-0.124 0.071-0.259 0.106-0.393 0.106z"></path>
<path fill="#444444" d="M6.547 10.077c-0.208 0-0.418-0.053-0.611-0.164l-3.635-2.098c-0.585-0.338-0.786-1.087-0.448-1.672s1.087-0.786 1.672-0.448l3.634 2.098c0.585 0.338 0.786 1.087 0.448 1.672-0.227 0.393-0.638 0.612-1.061 0.612z"></path>
<path fill="#444444" d="M21.085 17.945c-0.119 0-0.239-0.030-0.349-0.094l-3.634-2.098c-0.335-0.193-0.449-0.621-0.256-0.956s0.621-0.449 0.955-0.256l3.634 2.098c0.335 0.193 0.449 0.621 0.256 0.955-0.13 0.224-0.365 0.35-0.606 0.35z"></path>
<path fill="#444444" d="M5.705 13.137h-4.197c-0.628 0-1.137-0.509-1.137-1.137s0.509-1.137 1.137-1.137h4.197c0.628 0 1.137 0.509 1.137 1.137s-0.509 1.137-1.137 1.137z"></path>
<path fill="#444444" d="M22.492 12.699c-0 0 0 0 0 0h-4.197c-0.386-0-0.699-0.313-0.699-0.699s0.313-0.699 0.699-0.699c0 0 0 0 0 0h4.197c0.386 0 0.699 0.313 0.699 0.699s-0.313 0.699-0.699 0.699z"></path>
<path fill="#444444" d="M2.915 18.295c-0.363 0-0.715-0.188-0.91-0.525-0.29-0.502-0.118-1.144 0.384-1.433l3.635-2.098c0.502-0.29 1.144-0.118 1.433 0.384s0.118 1.144-0.384 1.433l-3.634 2.098c-0.165 0.095-0.346 0.141-0.524 0.141z"></path>
<path fill="#444444" d="M17.452 9.552c-0.242 0-0.477-0.125-0.606-0.35-0.193-0.335-0.079-0.762 0.256-0.956l3.634-2.098c0.335-0.193 0.762-0.079 0.956 0.256s0.079 0.762-0.256 0.956l-3.634 2.098c-0.11 0.064-0.23 0.094-0.349 0.094z"></path>
<path fill="#444444" d="M6.753 22.048c-0.163 0-0.329-0.042-0.48-0.129-0.46-0.266-0.618-0.854-0.352-1.314l2.098-3.634c0.266-0.46 0.854-0.618 1.314-0.352s0.618 0.854 0.352 1.314l-2.098 3.634c-0.178 0.309-0.501 0.481-0.834 0.481z"></path>
<path fill="#444444" d="M15.147 7.248c-0.119 0-0.239-0.030-0.349-0.094-0.335-0.193-0.449-0.621-0.256-0.955l2.098-3.634c0.193-0.335 0.621-0.449 0.955-0.256s0.449 0.621 0.256 0.955l-2.098 3.634c-0.13 0.224-0.365 0.35-0.606 0.35z"></path>
</svg>
